<svg version="1.1" id="svg2" xmlns="http://www.w3.org/2000/svg" viewBox="1.46 5.77 301.16 199.11">
  <defs id="defs6">
    <clipPath id="clipPath12" clipPathUnits="userSpaceOnUse">
      <path id="path14" d="m 0,0 595.27557,0 0,841.88983 L 0,841.88983 0,0 Z"/>
    </clipPath>
    <clipPath id="clipPath28" clipPathUnits="userSpaceOnUse">
      <path id="path30" d="m 189.42772,772.0058 142.31935,0 0,-119.63373 -142.31935,0 0,119.63373 z"/>
    </clipPath>
    <clipPath id="clipPath44" clipPathUnits="userSpaceOnUse">
      <path id="path46" d="m 178.21094,794.08057 167.3623,0 0,-49.19434 -167.3623,0 0,49.19434 z"/>
    </clipPath>
    <clipPath id="clipPath60" clipPathUnits="userSpaceOnUse">
      <path id="path62" d="m 162.47754,774.7085 166.19238,0 0,-49.30713 -166.19238,0 0,49.30713 z"/>
    </clipPath>
  </defs>
  <g clip-path="url(#clipPath12)" transform="matrix(1.25, 0, 0, -1.25, -190.658905, 1009.370361)" id="g10">
    <path id="path18" style="fill:#232671;fill-opacity:1;fill-rule:nonzero;stroke:none" d="M 365.688 721.723 C 363.889 721.723 362.737 721.565 362.229 721.247 C 361.725 720.93 361.473 720.21 361.473 719.09 C 361.473 717.461 361.696 716.446 362.147 716.045 C 362.603 715.646 363.74 715.448 365.571 715.448 C 367.321 715.448 368.418 715.626 368.853 715.979 C 369.293 716.339 369.512 717.231 369.512 718.667 C 369.512 720.02 369.293 720.87 368.87 721.211 C 368.441 721.552 367.383 721.723 365.688 721.723 L 365.688 721.723 Z M 373.08 726.986 C 373.08 726.986 369.299 726.986 369.299 726.986 C 369.299 726.986 369.316 727.438 369.316 727.438 C 369.316 728.372 369.105 728.982 368.683 729.27 C 368.26 729.559 367.369 729.698 366.006 729.698 C 364.029 729.698 362.792 729.511 362.304 729.135 C 361.814 728.758 361.566 727.814 361.566 726.301 C 361.566 726.301 361.566 722.844 361.566 722.844 C 361.566 722.844 361.641 722.844 361.641 722.844 C 362.301 724.146 363.943 724.797 366.572 724.797 C 369.153 724.797 370.915 724.387 371.857 723.567 C 372.796 722.75 373.271 721.217 373.271 718.974 C 373.271 716.377 372.764 714.626 371.755 713.727 C 370.742 712.822 368.781 712.374 365.867 712.374 C 362.273 712.374 360.016 712.907 359.092 713.967 C 358.174 715.033 357.711 717.626 357.711 721.752 C 357.711 726.845 358.124 729.955 358.954 731.083 C 359.783 732.208 362.076 732.774 365.844 732.774 C 368.585 732.774 370.476 732.397 371.513 731.639 C 372.557 730.889 373.073 729.511 373.073 727.515 C 373.073 727.515 373.08 726.986 373.08 726.986 L 373.08 726.986 Z"/>
    <path id="path20" style="fill:#232671;fill-opacity:1;fill-rule:nonzero;stroke:none" d="M 377.63 716.163 C 377.63 716.163 377.63 712.536 377.63 712.536 C 377.63 712.536 374.262 712.536 374.262 712.536 C 374.262 712.536 374.262 716.163 374.262 716.163 C 374.262 716.163 377.63 716.163 377.63 716.163 Z"/>
    <path id="path22" style="fill:#232671;fill-opacity:1;fill-rule:nonzero;stroke:none" d="M 388.522 719.792 C 388.522 719.792 388.522 729.728 388.522 729.728 C 388.522 729.728 388.403 729.728 388.403 729.728 C 388.403 729.728 380.79 719.792 380.79 719.792 C 380.79 719.792 388.522 719.792 388.522 719.792 Z M 392.312 732.609 C 392.312 732.609 392.312 719.792 392.312 719.792 C 392.312 719.792 394.601 719.792 394.601 719.792 C 394.601 719.792 394.601 716.853 394.601 716.853 C 394.601 716.853 392.312 716.853 392.312 716.853 C 392.312 716.853 392.312 712.536 392.312 712.536 C 392.312 712.536 388.522 712.536 388.522 712.536 C 388.522 712.536 388.522 716.853 388.522 716.853 C 388.522 716.853 377.67 716.853 377.67 716.853 C 377.67 716.853 377.67 721.13 377.67 721.13 C 377.67 721.13 386.444 732.609 386.444 732.609 C 386.444 732.609 392.312 732.609 392.312 732.609 L 392.312 732.609 Z"/>
    <g id="g24">
      <g id="g26"/>
      <g id="g32">
        <g id="g34" clip-path="url(#clipPath28)">
          <g id="g36" transform="scale(1,-1)">
            <path id="path38" style="fill:none;stroke:#00adef;stroke-width:14.45009995;stroke-linecap:round;stroke-linejoin:round;stroke-miterlimit:4;stroke-dasharray:none;stroke-opacity:1" d="m 324.52246,-764.78076 c 0,0 -111.52051,19.07373 -127.87012,105.18359"/>
          </g>
        </g>
      </g>
    </g>
    <g id="g40">
      <g id="g42"/>
      <g id="g48">
        <g id="g50" clip-path="url(#clipPath44)">
          <g id="g52" transform="scale(1,-1)">
            <path id="path54" style="fill:none;stroke:#ec008c;stroke-width:14.45009995;stroke-linecap:round;stroke-linejoin:round;stroke-miterlimit:4;stroke-dasharray:none;stroke-opacity:1" d="m 338.34863,-786.85547 c 0,0 -67.6084,57.33447 -152.91308,24.70068"/>
          </g>
        </g>
      </g>
    </g>
    <g id="g56">
      <g id="g58"/>
      <g id="g64">
        <g id="g66" clip-path="url(#clipPath60)">
          <g id="g68" transform="scale(1,-1)">
            <path id="path70" style="fill:none;stroke:#abdc57;stroke-width:14.45009995;stroke-linecap:round;stroke-linejoin:round;stroke-miterlimit:4;stroke-dasharray:none;stroke-opacity:1" d="m 321.44531,-767.4834 c 0,0 -103.54297,37.99512 -151.74316,34.64795"/>
          </g>
        </g>
      </g>
    </g>
    <path id="path554" style="fill:#232671;fill-opacity:1;fill-rule:nonzero;stroke:none" d="M 257.957 707.676 C 257.957 707.676 257.957 686.724 257.957 686.724 C 257.957 682.837 257.313 680.253 256.021 678.983 C 254.732 677.709 252.107 677.075 248.149 677.075 C 243.942 677.075 241.205 677.688 239.955 678.918 C 238.702 680.142 238.078 682.828 238.078 686.97 C 238.078 686.97 238.156 689.211 238.156 689.211 C 238.156 689.211 243.644 689.211 243.644 689.211 C 243.733 688.084 243.777 687.239 243.777 686.679 C 243.777 686.146 243.801 685.5 243.845 684.748 C 243.931 682.907 245.396 681.993 248.223 681.993 C 249.911 681.993 250.999 682.321 251.477 682.98 C 251.961 683.64 252.2 685.124 252.2 687.435 C 252.2 687.435 252.2 707.676 252.2 707.676 C 252.2 707.676 257.957 707.676 257.957 707.676 L 257.957 707.676 Z"/>
    <path id="path556" style="fill:#232671;fill-opacity:1;fill-rule:nonzero;stroke:none" d="M 265.081 702.81 C 265.081 702.81 265.081 695.018 265.081 695.018 C 265.081 695.018 279.259 695.018 279.259 695.018 C 279.259 695.018 279.259 690.78 279.259 690.78 C 279.259 690.78 265.081 690.78 265.081 690.78 C 265.081 690.78 265.081 682.2 265.081 682.2 C 265.081 682.2 280.2 682.2 280.2 682.2 C 280.2 682.2 280.2 677.335 280.2 677.335 C 280.2 677.335 259.326 677.335 259.326 677.335 C 259.326 677.335 259.326 707.676 259.326 707.676 C 259.326 707.676 280.042 707.676 280.042 707.676 C 280.042 707.676 280.042 702.81 280.042 702.81 C 280.042 702.81 265.081 702.81 265.081 702.81 Z"/>
    <path id="path558" style="fill:#232671;fill-opacity:1;fill-rule:nonzero;stroke:none" d="M 300.574 707.676 C 300.574 707.676 306.329 707.676 306.329 707.676 C 306.329 707.676 306.329 687.491 306.329 687.491 C 306.329 683.269 305.521 680.479 303.893 679.116 C 302.273 677.755 298.953 677.075 293.943 677.075 C 288.65 677.075 285.179 677.715 283.534 679.006 C 281.889 680.294 281.063 683.01 281.063 687.158 C 281.063 687.158 281.063 707.676 281.063 707.676 C 281.063 707.676 286.818 707.676 286.818 707.676 C 286.818 707.676 286.818 687.158 286.818 687.158 C 286.818 684.915 287.221 683.495 288.022 682.894 C 288.823 682.291 290.711 681.993 293.678 681.993 C 296.72 681.993 298.626 682.297 299.409 682.904 C 300.188 683.511 300.574 685.006 300.574 687.378 C 300.574 687.378 300.574 707.676 300.574 707.676 L 300.574 707.676 Z"/>
    <path id="path560" style="fill:#232671;fill-opacity:1;fill-rule:nonzero;stroke:none" d="M 336.373 707.676 C 336.373 707.676 336.373 677.335 336.373 677.335 C 336.373 677.335 326.618 677.335 326.618 677.335 C 326.618 677.335 317.958 693.976 317.958 693.976 C 317.529 694.803 316.854 696.256 315.941 698.333 C 315.941 698.333 314.96 700.512 314.96 700.512 C 314.96 700.512 314.008 702.692 314.008 702.692 C 314.008 702.692 313.785 702.692 313.785 702.692 C 313.785 702.692 313.871 700.688 313.871 700.688 C 313.871 700.688 313.938 698.708 313.938 698.708 C 313.938 698.708 313.983 694.732 313.983 694.732 C 313.983 694.732 313.983 677.335 313.983 677.335 C 313.983 677.335 308.228 677.335 308.228 677.335 C 308.228 677.335 308.228 707.676 308.228 707.676 C 308.228 707.676 317.983 707.676 317.983 707.676 C 317.983 707.676 325.865 692.288 325.865 692.288 C 326.562 690.926 327.369 689.275 328.29 687.331 C 328.29 687.331 329.444 684.867 329.444 684.867 C 329.444 684.867 330.596 682.379 330.596 682.379 C 330.596 682.379 330.796 682.379 330.796 682.379 C 330.796 682.379 330.73 684.334 330.73 684.334 C 330.73 684.334 330.663 686.288 330.663 686.288 C 330.663 686.288 330.619 690.198 330.619 690.198 C 330.619 690.198 330.619 707.676 330.619 707.676 C 330.619 707.676 336.373 707.676 336.373 707.676 L 336.373 707.676 Z"/>
    <path id="path562" style="fill:#232671;fill-opacity:1;fill-rule:nonzero;stroke:none" d="M 343.488 702.81 C 343.488 702.81 343.488 695.018 343.488 695.018 C 343.488 695.018 357.66 695.018 357.66 695.018 C 357.66 695.018 357.66 690.78 357.66 690.78 C 357.66 690.78 343.488 690.78 343.488 690.78 C 343.488 690.78 343.488 682.2 343.488 682.2 C 343.488 682.2 358.601 682.2 358.601 682.2 C 358.601 682.2 358.601 677.335 358.601 677.335 C 358.601 677.335 337.731 677.335 337.731 677.335 C 337.731 677.335 337.731 707.676 337.731 707.676 C 337.731 707.676 358.446 707.676 358.446 707.676 C 358.446 707.676 358.446 702.81 358.446 702.81 C 358.446 702.81 343.488 702.81 343.488 702.81 L 343.488 702.81 Z"/>
    <path id="path564" style="fill:#232671;fill-opacity:1;fill-rule:nonzero;stroke:none" d="M 381.979 698.837 C 381.979 698.837 376.358 698.837 376.358 698.837 C 376.328 699.121 376.312 699.323 376.312 699.46 C 376.179 701.163 375.804 702.238 375.18 702.679 C 374.558 703.116 373.09 703.335 370.776 703.335 C 368.051 703.335 366.269 703.083 365.431 702.579 C 364.597 702.074 364.179 701.014 364.179 699.401 C 364.179 697.488 364.514 696.339 365.199 695.949 C 365.879 695.567 368.13 695.273 371.948 695.063 C 376.465 694.811 379.383 694.167 380.707 693.128 C 382.037 692.089 382.693 689.934 382.693 686.659 C 382.693 682.624 381.92 680.02 380.361 678.841 C 378.812 677.663 375.383 677.075 370.079 677.075 C 365.315 677.075 362.148 677.653 360.59 678.811 C 359.027 679.97 358.246 682.315 358.246 685.849 C 358.246 685.849 358.224 686.961 358.224 686.961 C 358.224 686.961 363.824 686.961 363.824 686.961 C 363.824 686.961 363.844 686.313 363.844 686.313 C 363.844 684.177 364.214 682.871 364.955 682.393 C 365.693 681.917 367.709 681.675 371.009 681.675 C 373.579 681.675 375.22 681.951 375.93 682.501 C 376.637 683.051 376.991 684.318 376.991 686.302 C 376.991 687.769 376.723 688.743 376.18 689.227 C 375.64 689.708 374.48 690 372.688 690.106 C 372.688 690.106 369.509 690.304 369.509 690.304 C 364.713 690.584 361.649 691.251 360.317 692.305 C 358.984 693.355 358.316 695.621 358.316 699.089 C 358.316 702.628 359.121 704.991 360.728 706.171 C 362.338 707.35 365.55 707.937 370.363 707.937 C 374.927 707.937 378 707.398 379.584 706.32 C 381.174 705.235 381.96 703.126 381.96 699.99 C 381.96 699.99 381.978 698.837 381.978 698.837 L 381.979 698.837 Z"/>
  </g>
</svg>