<svg version="1.1" id="svg2" xmlns="http://www.w3.org/2000/svg" viewBox="-5.52 -6.51 203.56 162.19">
  <defs id="defs6">
    <clipPath id="clipPath12" clipPathUnits="userSpaceOnUse">
      <path id="path14" d="m 0,0 595.27557,0 0,841.88983 L 0,841.88983 0,0 Z"/>
    </clipPath>
    <clipPath id="clipPath510" clipPathUnits="userSpaceOnUse">
      <path id="path512" d="m 223.92967,346.18555 142.31639,0 0,-119.63379 -142.31639,0 0,119.63379 z"/>
    </clipPath>
    <clipPath id="clipPath526" clipPathUnits="userSpaceOnUse">
      <path id="path528" d="m 212.71191,368.25879 167.36329,0 0,-49.19336 -167.36329,0 0,49.19336 z"/>
    </clipPath>
    <clipPath id="clipPath542" clipPathUnits="userSpaceOnUse">
      <path id="path544" d="m 196.97948,348.88672 166.19044,0 0,-49.30469 -166.19044,0 0,49.30469 z"/>
    </clipPath>
  </defs>
  <path id="path500" style="fill:#232671;fill-opacity:1;fill-rule:nonzero;stroke:none" d="M 99.061 112.414 C 94.903 112.414 92.242 112.779 91.068 113.512 C 89.902 114.244 89.317 115.909 89.317 118.497 C 89.317 122.259 89.835 124.602 90.879 125.532 C 91.932 126.452 94.56 126.911 98.789 126.911 C 102.831 126.911 105.365 126.5 106.369 125.684 C 107.385 124.849 107.892 122.789 107.892 119.472 C 107.892 116.348 107.39 114.384 106.411 113.596 C 105.419 112.808 102.975 112.414 99.061 112.414 Z M 116.138 100.253 C 116.138 100.253 107.402 100.253 107.402 100.253 C 107.402 100.253 107.442 99.211 107.442 99.211 C 107.442 97.051 106.952 95.643 105.979 94.98 C 105.002 94.309 102.943 93.99 99.796 93.99 C 95.226 93.99 92.369 94.422 91.238 95.291 C 90.11 96.159 89.538 98.342 89.538 101.836 C 89.538 101.836 89.538 109.824 89.538 109.824 C 89.538 109.824 89.709 109.824 89.709 109.824 C 91.23 106.816 95.025 105.31 101.103 105.31 C 107.062 105.31 111.134 106.258 113.31 108.152 C 115.48 110.039 116.579 113.582 116.579 118.764 C 116.579 124.763 115.405 128.808 113.075 130.888 C 110.733 132.975 106.205 134.011 99.47 134.011 C 91.171 134.011 85.954 132.779 83.82 130.333 C 81.7 127.87 80.63 121.879 80.63 112.346 C 80.63 100.581 81.583 93.397 83.499 90.788 C 85.418 88.19 90.716 86.883 99.418 86.883 C 105.753 86.883 110.119 87.755 112.517 89.505 C 114.923 91.239 116.122 94.422 116.122 99.032 C 116.122 99.032 116.138 100.253 116.138 100.253 L 116.138 100.253 Z"/>
  <path id="path502" style="fill:#232671;fill-opacity:1;fill-rule:nonzero;stroke:none" d="M 126.645 125.258 C 126.645 125.258 126.645 133.638 126.645 133.638 C 126.645 133.638 118.869 133.638 118.869 133.638 C 118.869 133.638 118.869 125.258 118.869 125.258 C 118.869 125.258 126.645 125.258 126.645 125.258 Z"/>
  <path id="path504" style="fill:#232671;fill-opacity:1;fill-rule:nonzero;stroke:none" d="M 151.811 116.875 C 151.811 116.875 151.811 93.92 151.811 93.92 C 151.811 93.92 151.535 93.92 151.535 93.92 C 151.535 93.92 133.946 116.875 133.946 116.875 C 133.946 116.875 151.811 116.875 151.811 116.875 L 151.811 116.875 Z M 160.568 87.261 C 160.568 87.261 160.568 116.875 160.568 116.875 C 160.568 116.875 165.853 116.875 165.853 116.875 C 165.853 116.875 165.853 123.665 165.853 123.665 C 165.853 123.665 160.568 123.665 160.568 123.665 C 160.568 123.665 160.568 133.638 160.568 133.638 C 160.568 133.638 151.811 133.638 151.811 133.638 C 151.811 133.638 151.811 123.665 151.811 123.665 C 151.811 123.665 126.74 123.665 126.74 123.665 C 126.74 123.665 126.74 113.784 126.74 113.784 C 126.74 113.784 147.011 87.261 147.011 87.261 C 147.011 87.261 160.568 87.261 160.568 87.261 L 160.568 87.261 Z"/>
  <g id="g506" transform="matrix(1, 0, 0, -1, -192.269501, 371.994751)">
    <g id="g508"/>
    <g id="g514">
      <g id="g516" clip-path="url(#clipPath510)">
        <g id="g518" transform="scale(1,-1)">
          <path id="path520" style="fill:none;stroke:#00adef;stroke-width:14.45009995;stroke-linecap:round;stroke-linejoin:round;stroke-miterlimit:4;stroke-dasharray:none;stroke-opacity:1" d="m 359.02148,-338.96094 c 0,0 -111.51953,19.0752 -127.86718,105.18457"/>
        </g>
      </g>
    </g>
  </g>
  <g id="g522" transform="matrix(1, 0, 0, -1, -192.269501, 371.994751)">
    <g id="g524"/>
    <g id="g530">
      <g id="g532" clip-path="url(#clipPath526)">
        <g id="g534" transform="scale(1,-1)">
          <path id="path536" style="fill:none;stroke:#ec008c;stroke-width:14.45009995;stroke-linecap:round;stroke-linejoin:round;stroke-miterlimit:4;stroke-dasharray:none;stroke-opacity:1" d="m 372.85059,-361.03418 c 0,0 -67.60938,57.33398 -152.91407,24.7002"/>
        </g>
      </g>
    </g>
  </g>
  <g id="g538" transform="matrix(1, 0, 0, -1, -192.269501, 371.994751)">
    <g id="g540"/>
    <g id="g546">
      <g id="g548" clip-path="url(#clipPath542)">
        <g id="g550" transform="scale(1,-1)">
          <path id="path552" style="fill:none;stroke:#abdc57;stroke-width:14.45009995;stroke-linecap:round;stroke-linejoin:round;stroke-miterlimit:4;stroke-dasharray:none;stroke-opacity:1" d="m 355.94531,-341.66211 c 0,0 -103.54199,37.99414 -151.74121,34.64648"/>
        </g>
      </g>
    </g>
  </g>
  <g clip-path="url(#clipPath12)" transform="matrix(1.25,0,0,-1.25,0,1052.3621)" id="g10"/>
</svg>